<svg width="217.000000" height="48.000000" viewBox="0 0 217 48" fill="none" xmlns="http://www.w3.org/2000/svg" xmlns:xlink="http://www.w3.org/1999/xlink">
	<desc>
			Created with Pixso.
	</desc>
	<defs>
		<clipPath id="clip26_214">
			<rect id="Frame" width="47.345455" height="48.000000" fill="white" fill-opacity="0"/>
		</clipPath>
	</defs>
	<path id="Vector" d="M216.469 27.0304C216.469 29.6212 215.972 31.8069 214.979 33.5872C213.985 35.3599 212.644 36.7046 210.955 37.6212C209.266 38.5304 207.383 38.9849 205.306 38.9849C203.213 38.9849 201.323 38.5266 199.634 37.6099C197.953 36.6857 196.615 35.3372 195.621 33.5645C194.635 31.7842 194.142 29.6061 194.142 27.0304C194.142 24.4395 194.635 22.2576 195.621 20.4849C196.615 18.7046 197.953 17.3599 199.634 16.4508C201.323 15.5341 203.213 15.0758 205.306 15.0758C207.383 15.0758 209.266 15.5341 210.955 16.4508C212.644 17.3599 213.985 18.7046 214.979 20.4849C215.972 22.2576 216.469 24.4395 216.469 27.0304ZM210.058 27.0304C210.058 25.6365 209.875 24.4622 209.509 23.5076C209.15 22.5455 208.616 21.8182 207.906 21.3258C207.204 20.8258 206.336 20.5758 205.306 20.5758C204.274 20.5758 203.404 20.8258 202.694 21.3258C201.991 21.8182 201.457 22.5455 201.091 23.5076C200.732 24.4622 200.553 25.6365 200.553 27.0304C200.553 28.4243 200.732 29.6023 201.091 30.5645C201.457 31.519 201.991 32.2462 202.694 32.7462C203.404 33.2386 204.274 33.4849 205.306 33.4849C206.336 33.4849 207.204 33.2386 207.906 32.7462C208.616 32.2462 209.15 31.519 209.509 30.5645C209.875 29.6023 210.058 28.4243 210.058 27.0304Z" fill="#FF3D00" fill-opacity="1.000000" fill-rule="nonzero"/>
	<path id="Vector" d="M170.559 38.6666L170.559 15.3939L176.791 15.3939L176.791 24.4849L185.04 24.4849L185.04 15.3939L191.272 15.3939L191.272 38.6666L185.04 38.6666L185.04 29.5757L176.791 29.5757L176.791 38.6666L170.559 38.6666Z" fill="#FF3D00" fill-opacity="1.000000" fill-rule="nonzero"/>
	<path id="Vector" d="M147.749 15.3939L153.981 15.3939L153.981 27.5757L154.16 27.5757L162.32 15.3939L167.611 15.3939L167.611 38.6666L161.379 38.6666L161.379 26.4393L161.244 26.4393L152.95 38.6666L147.749 38.6666L147.749 15.3939Z" fill="#FF3D00" fill-opacity="1.000000" fill-rule="nonzero"/>
	<path id="Vector" d="M138.253 38.6666L131.214 29.2576L130.339 29.2576L130.339 38.6666L124.107 38.6666L124.107 15.3939L130.339 15.3939L130.339 24.1666L131.146 24.1666L137.737 15.3939L145.583 15.3939L136.84 26.5757L146.077 38.6666L138.253 38.6666Z" fill="#FF3D00" fill-opacity="1.000000" fill-rule="nonzero"/>
	<path id="Vector" d="M121.224 27.0304C121.224 29.6212 120.727 31.8069 119.733 33.5872C118.739 35.3599 117.398 36.7046 115.709 37.6212C114.02 38.5304 112.137 38.9849 110.06 38.9849C107.968 38.9849 106.077 38.5266 104.388 37.6099C102.707 36.6857 101.369 35.3372 100.375 33.5645C99.3892 31.7842 98.896 29.6061 98.896 27.0304C98.896 24.4395 99.3892 22.2576 100.375 20.4849C101.369 18.7046 102.707 17.3599 104.388 16.4508C106.077 15.5341 107.968 15.0758 110.06 15.0758C112.137 15.0758 114.02 15.5341 115.709 16.4508C117.398 17.3599 118.739 18.7046 119.733 20.4849C120.727 22.2576 121.224 24.4395 121.224 27.0304ZM114.812 27.0304C114.812 25.6365 114.629 24.4622 114.263 23.5076C113.904 22.5455 113.37 21.8182 112.66 21.3258C111.958 20.8258 111.091 20.5758 110.06 20.5758C109.029 20.5758 108.158 20.8258 107.448 21.3258C106.746 21.8182 106.211 22.5455 105.845 23.5076C105.487 24.4622 105.307 25.6365 105.307 27.0304C105.307 28.4243 105.487 29.6023 105.845 30.5645C106.211 31.519 106.746 32.2462 107.448 32.7462C108.158 33.2386 109.029 33.4849 110.06 33.4849C111.091 33.4849 111.958 33.2386 112.66 32.7462C113.37 32.2462 113.904 31.519 114.263 30.5645C114.629 29.6023 114.812 28.4243 114.812 27.0304Z" fill="#FFFFFF" fill-opacity="1.000000" fill-rule="nonzero"/>
	<path id="Vector" d="M78.272 38.6666L78.272 15.3939L88.1807 15.3939C89.8843 15.3939 91.375 15.7348 92.6528 16.4166C93.9307 17.0984 94.9243 18.0568 95.6343 19.2916C96.3442 20.5265 96.6992 21.9697 96.6992 23.6212C96.6992 25.2878 96.333 26.7311 95.6006 27.9507C94.876 29.1704 93.856 30.1099 92.5405 30.7689C91.2329 31.428 89.7046 31.7576 87.9561 31.7576L82.0381 31.7576L82.0381 26.8485L86.7007 26.8485C87.4331 26.8485 88.0571 26.7197 88.5728 26.4622C89.0957 26.1969 89.4956 25.8219 89.772 25.3372C90.0562 24.8523 90.1982 24.2803 90.1982 23.6212C90.1982 22.9545 90.0562 22.3864 89.772 21.9166C89.4956 21.4393 89.0957 21.0757 88.5728 20.8257C88.0571 20.5681 87.4331 20.4393 86.7007 20.4393L84.5039 20.4393L84.5039 38.6666L78.272 38.6666Z" fill="#FFFFFF" fill-opacity="1.000000" fill-rule="nonzero"/>
	<path id="Vector" d="M74.2847 15.3939L74.2847 38.6666L68.1426 38.6666L68.1426 20.3939L60.3862 20.3939L60.3862 38.6666L54.2437 38.6666L54.2437 15.3939L74.2847 15.3939Z" fill="#FFFFFF" fill-opacity="1.000000" fill-rule="nonzero"/>
	<rect id="Frame" width="47.345455" height="48.000000" fill="#FFFFFF" fill-opacity="0"/>
	<g clip-path="url(#clip26_214)">
		<path id="Vector" d="M7.39771 18L31.0703 18C33.522 18 35.5088 20.0148 35.5088 22.5L35.5088 33C35.5088 35.4852 33.522 37.5 31.0703 37.5L7.39771 37.5C4.94629 37.5 2.95898 35.4852 2.95898 33L2.95898 22.5C2.95898 20.0148 4.94629 18 7.39771 18Z" fill="#FF3D00" fill-opacity="1.000000" fill-rule="evenodd"/>
		<path id="Vector" d="M44.3867 34.5L35.5093 30L35.5093 25.5L44.3867 21L44.3867 34.5Z" fill="#FF3D00" fill-opacity="1.000000" fill-rule="nonzero"/>
		<path id="Vector" d="M32.5503 9C32.5503 12.3137 29.9004 15 26.6318 15C23.3638 15 20.7139 12.3137 20.7139 9C20.7139 5.68628 23.3638 3 26.6318 3C29.9004 3 32.5503 5.68628 32.5503 9Z" fill="#FF3D00" fill-opacity="1.000000" fill-rule="evenodd"/>
		<path id="Vector" d="M16.2749 10.5C16.2749 12.9853 14.2878 15 11.8364 15C9.38501 15 7.39771 12.9853 7.39771 10.5C7.39771 8.01471 9.38501 6 11.8364 6C14.2878 6 16.2749 8.01471 16.2749 10.5Z" fill="#FF3D00" fill-opacity="1.000000" fill-rule="evenodd"/>
		<path id="Vector" d="M44.7754 20.3625C44.668 20.2954 44.5459 20.2572 44.4199 20.2515C44.2939 20.2457 44.1685 20.2726 44.0557 20.3295L36.249 24.2865L36.249 22.5C36.2471 21.1082 35.7012 19.7737 34.7305 18.7894C33.7598 17.8052 32.4434 17.2516 31.0703 17.25L7.39771 17.25C6.02466 17.2516 4.7085 17.8052 3.73779 18.7894C2.76685 19.7737 2.2207 21.1082 2.21924 22.5L2.21924 33C2.2207 34.3918 2.76685 35.7263 3.73779 36.7106C4.7085 37.6948 6.02466 38.2484 7.39771 38.25L17.4482 38.25L11.3132 44.4697C11.1785 44.6112 11.104 44.8007 11.1057 44.9973C11.1074 45.194 11.1851 45.3821 11.3223 45.5211C11.4595 45.6602 11.645 45.739 11.8389 45.7407C12.033 45.7424 12.2197 45.6669 12.3594 45.5303L19.2339 38.5605L26.1089 45.5303C26.248 45.6669 26.4351 45.7424 26.6289 45.7407C26.8232 45.739 27.0088 45.6602 27.1455 45.5211C27.2827 45.3821 27.3608 45.194 27.3623 44.9973C27.3643 44.8007 27.2896 44.6112 27.1548 44.4697L21.02 38.25L31.0703 38.25C32.4434 38.2484 33.7598 37.6948 34.7305 36.7106C35.7012 35.7263 36.2471 34.3918 36.249 33L36.249 31.2135L44.0557 35.1713C44.1685 35.2284 44.2939 35.2554 44.4199 35.2496C44.5459 35.2438 44.668 35.2054 44.7754 35.1382C44.8828 35.0709 44.9712 34.9771 45.0327 34.8654C45.0938 34.7537 45.126 34.6278 45.126 34.5L45.126 21C45.126 20.8723 45.0938 20.7467 45.0322 20.6351C44.9712 20.5236 44.8828 20.4297 44.7754 20.3625ZM34.769 33C34.7681 33.9941 34.3779 34.9474 33.6846 35.6504C32.9912 36.3534 32.0508 36.7488 31.0703 36.75L7.39771 36.75C6.41699 36.7488 5.47681 36.3534 4.78345 35.6504C4.09009 34.9474 3.69995 33.9941 3.69873 33L3.69873 22.5C3.69995 21.5059 4.09009 20.5526 4.78345 19.8496C5.47681 19.1466 6.41699 18.7512 7.39771 18.75L31.0703 18.75C32.0508 18.7512 32.9912 19.1466 33.6846 19.8496C34.3779 20.5526 34.7681 21.5059 34.769 22.5L34.769 33ZM43.6465 33.2865L36.249 29.5365L36.249 25.9635L43.6465 22.2135L43.6465 33.2865ZM26.6318 15.75C27.9487 15.75 29.2358 15.3541 30.3306 14.6124C31.4258 13.8707 32.2788 12.8165 32.7827 11.5831C33.2866 10.3497 33.4185 8.99249 33.1616 7.68317C32.9048 6.37378 32.271 5.17102 31.3398 4.22705C30.4087 3.28302 29.2222 2.64014 27.9307 2.3797C26.6392 2.11926 25.3003 2.25293 24.084 2.76379C22.8672 3.27472 21.8276 4.13989 21.0957 5.24988C20.3643 6.35992 19.9736 7.66498 19.9736 9C19.9756 10.7896 20.6777 12.5054 21.9258 13.7708C23.1743 15.0362 24.8667 15.748 26.6318 15.75ZM26.6318 3.75C27.6558 3.75 28.6572 4.05792 29.5088 4.63477C30.3604 5.21167 31.0239 6.03162 31.416 6.99091C31.8081 7.95026 31.9106 9.0058 31.7104 10.0242C31.5107 11.0426 31.0176 11.9781 30.2935 12.7123C29.5693 13.4465 28.6465 13.9465 27.6421 14.1491C26.6377 14.3517 25.5962 14.2477 24.6499 13.8503C23.7036 13.453 22.895 12.7801 22.3262 11.9167C21.7568 11.0534 21.4531 10.0383 21.4531 9C21.4551 7.60809 22.001 6.27368 22.9717 5.28943C23.9424 4.30524 25.2588 3.75159 26.6318 3.75ZM11.8362 15.75C12.8606 15.75 13.8616 15.4421 14.7131 14.8652C15.5649 14.2883 16.2285 13.4684 16.6206 12.5091C17.0125 11.5498 17.115 10.4942 16.9153 9.47577C16.7153 8.4574 16.2222 7.52191 15.498 6.78772C14.7737 6.05347 13.8511 5.55347 12.8464 5.35089C11.842 5.14832 10.8008 5.25226 9.85449 5.64966C8.90845 6.047 8.09961 6.71991 7.53052 7.58325C6.96167 8.44659 6.65796 9.46167 6.65796 10.5C6.65942 11.8919 7.20557 13.2263 8.17627 14.2106C9.14722 15.1948 10.4634 15.7484 11.8362 15.75ZM11.8362 6.75C12.5679 6.75 13.283 6.96991 13.8914 7.38202C14.4995 7.79407 14.9736 8.3797 15.2537 9.06494C15.5334 9.75018 15.6067 10.5042 15.4641 11.2316C15.3213 11.959 14.969 12.6272 14.4517 13.1517C13.9346 13.6761 13.2754 14.0333 12.5579 14.1779C11.8403 14.3226 11.0967 14.2484 10.4209 13.9645C9.74487 13.6807 9.16724 13.2001 8.76074 12.5834C8.35425 11.9667 8.13745 11.2417 8.13745 10.5C8.13867 9.5058 8.52856 8.55267 9.22217 7.84967C9.91553 7.14667 10.8557 6.75122 11.8362 6.75Z" fill="#FFFFFF" fill-opacity="1.000000" fill-rule="nonzero"/>
	</g>
</svg>
