<svg width="130.000000" height="28.000000" viewBox="0 0 130 28" fill="none" xmlns="http://www.w3.org/2000/svg" xmlns:xlink="http://www.w3.org/1999/xlink">
	<desc>
			Created with Pixso.
	</desc>
	<defs>
		<clipPath id="clip26_170">
			<rect id="Frame" width="28.363636" height="28.000000" fill="white" fill-opacity="0"/>
		</clipPath>
	</defs>
	<path id="Vector" d="M129.682 15.7677C129.682 17.2791 129.385 18.554 128.789 19.5925C128.194 20.6266 127.39 21.411 126.378 21.9457C125.367 22.476 124.239 22.7411 122.994 22.7411C121.741 22.7411 120.608 22.4738 119.596 21.9391C118.589 21.4 117.788 20.6133 117.193 19.5792C116.602 18.5407 116.306 17.2702 116.306 15.7677C116.306 14.2563 116.602 12.9836 117.193 11.9495C117.788 10.911 118.589 10.1266 119.596 9.59625C120.608 9.06152 121.741 8.79419 122.994 8.79419C124.239 8.79419 125.367 9.06152 126.378 9.59625C127.39 10.1266 128.194 10.911 128.789 11.9495C129.385 12.9836 129.682 14.2563 129.682 15.7677ZM125.841 15.7677C125.841 14.9545 125.732 14.2696 125.512 13.7128C125.297 13.1515 124.977 12.7273 124.552 12.44C124.131 12.1484 123.612 12.0025 122.994 12.0025C122.376 12.0025 121.855 12.1484 121.43 12.44C121.009 12.7273 120.689 13.1515 120.469 13.7128C120.254 14.2696 120.147 14.9545 120.147 15.7677C120.147 16.5808 120.254 17.268 120.469 17.8292C120.689 18.386 121.009 18.8103 121.43 19.1019C121.855 19.3892 122.376 19.5328 122.994 19.5328C123.612 19.5328 124.131 19.3892 124.552 19.1019C124.977 18.8103 125.297 18.386 125.512 17.8292C125.732 17.268 125.841 16.5808 125.841 15.7677Z" fill="#FF3D00" fill-opacity="1.000000" fill-rule="nonzero"/>
	<path id="Vector" d="M102.178 22.5555L102.178 8.9798L105.911 8.9798L105.911 14.2828L110.854 14.2828L110.854 8.9798L114.587 8.9798L114.587 22.5555L110.854 22.5555L110.854 17.2525L105.911 17.2525L105.911 22.5555L102.178 22.5555Z" fill="#FF3D00" fill-opacity="1.000000" fill-rule="nonzero"/>
	<path id="Vector" d="M88.5132 8.9798L92.2466 8.9798L92.2466 16.0859L92.354 16.0859L97.2424 8.9798L100.412 8.9798L100.412 22.5555L96.6785 22.5555L96.6785 15.423L96.5979 15.423L91.6289 22.5555L88.5132 22.5555L88.5132 8.9798Z" fill="#FF3D00" fill-opacity="1.000000" fill-rule="nonzero"/>
	<path id="Vector" d="M82.824 22.5555L78.6072 17.0669L78.0833 17.0669L78.0833 22.5555L74.3499 22.5555L74.3499 8.9798L78.0833 8.9798L78.0833 14.0972L78.5669 14.0972L82.5151 8.9798L87.2156 8.9798L81.978 15.5025L87.511 22.5555L82.824 22.5555Z" fill="#FF3D00" fill-opacity="1.000000" fill-rule="nonzero"/>
	<path id="Vector" d="M72.6226 15.7677C72.6226 17.2791 72.325 18.554 71.7295 19.5925C71.134 20.6266 70.3306 21.411 69.3188 21.9457C68.3071 22.476 67.1792 22.7411 65.9346 22.7411C64.6812 22.7411 63.5486 22.4738 62.5369 21.9391C61.5295 21.4 60.7283 20.6133 60.1331 19.5792C59.542 18.5407 59.2466 17.2702 59.2466 15.7677C59.2466 14.2563 59.542 12.9836 60.1331 11.9495C60.7283 10.911 61.5295 10.1266 62.5369 9.59625C63.5486 9.06152 64.6812 8.79419 65.9346 8.79419C67.1792 8.79419 68.3071 9.06152 69.3188 9.59625C70.3306 10.1266 71.134 10.911 71.7295 11.9495C72.325 12.9836 72.6226 14.2563 72.6226 15.7677ZM68.7817 15.7677C68.7817 14.9545 68.6721 14.2696 68.4526 13.7128C68.2378 13.1515 67.9177 12.7273 67.4924 12.44C67.0715 12.1484 66.5522 12.0025 65.9346 12.0025C65.3169 12.0025 64.7954 12.1484 64.3701 12.44C63.9492 12.7273 63.6292 13.1515 63.4099 13.7128C63.1948 14.2696 63.0874 14.9545 63.0874 15.7677C63.0874 16.5808 63.1948 17.268 63.4099 17.8292C63.6292 18.386 63.9492 18.8103 64.3701 19.1019C64.7954 19.3892 65.3169 19.5328 65.9346 19.5328C66.5522 19.5328 67.0715 19.3892 67.4924 19.1019C67.9177 18.8103 68.2378 18.386 68.4526 17.8292C68.6721 17.268 68.7817 16.5808 68.7817 15.7677Z" fill="#FFFFFF" fill-opacity="1.000000" fill-rule="nonzero"/>
	<path id="Vector" d="M46.8911 22.5555L46.8911 8.9798L52.8271 8.9798C53.8477 8.9798 54.7407 9.17865 55.5063 9.57642C56.2717 9.97412 56.8672 10.5331 57.2925 11.2535C57.7178 11.9738 57.9304 12.8157 57.9304 13.7791C57.9304 14.7513 57.7109 15.5931 57.2722 16.3046C56.8381 17.0161 56.2271 17.5641 55.4392 17.9485C54.6558 18.333 53.7402 18.5253 52.6929 18.5253L49.1472 18.5253L49.1472 15.6616L51.9407 15.6616C52.3794 15.6616 52.7532 15.5865 53.062 15.4362C53.3755 15.2816 53.615 15.0628 53.7805 14.78C53.9507 14.4971 54.0356 14.1635 54.0356 13.7791C54.0356 13.3901 53.9507 13.0587 53.7805 12.7847C53.615 12.5063 53.3755 12.2942 53.062 12.1484C52.7532 11.9981 52.3794 11.923 51.9407 11.923L50.6245 11.923L50.6245 22.5555L46.8911 22.5555Z" fill="#FFFFFF" fill-opacity="1.000000" fill-rule="nonzero"/>
	<path id="Vector" d="M44.5022 8.9798L44.5022 22.5555L40.8225 22.5555L40.8225 11.8965L36.1758 11.8965L36.1758 22.5555L32.4961 22.5555L32.4961 8.9798L44.5022 8.9798Z" fill="#FFFFFF" fill-opacity="1.000000" fill-rule="nonzero"/>
	<rect id="Frame" width="28.363636" height="28.000000" fill="#FFFFFF" fill-opacity="0"/>
	<g clip-path="url(#clip26_170)">
		<path id="Vector" d="M4.43188 10.5L18.6135 10.5C20.0823 10.5 21.2727 11.6752 21.2727 13.125L21.2727 19.25C21.2727 20.6998 20.0823 21.875 18.6135 21.875L4.43188 21.875C2.96313 21.875 1.77271 20.6998 1.77271 19.25L1.77271 13.125C1.77271 11.6752 2.96313 10.5 4.43188 10.5Z" fill="#FF3D00" fill-opacity="1.000000" fill-rule="evenodd"/>
		<path id="Vector" d="M26.5908 20.125L21.2727 17.5L21.2727 14.875L26.5908 12.25L26.5908 20.125Z" fill="#FF3D00" fill-opacity="1.000000" fill-rule="nonzero"/>
		<path id="Vector" d="M19.5 5.25C19.5 7.18298 17.9128 8.75 15.9546 8.75C13.9966 8.75 12.4092 7.18298 12.4092 5.25C12.4092 3.31702 13.9966 1.75 15.9546 1.75C17.9128 1.75 19.5 3.31702 19.5 5.25Z" fill="#FF3D00" fill-opacity="1.000000" fill-rule="evenodd"/>
		<path id="Vector" d="M9.75 6.125C9.75 7.57477 8.55957 8.75 7.09106 8.75C5.62231 8.75 4.43188 7.57477 4.43188 6.125C4.43188 4.67523 5.62231 3.5 7.09106 3.5C8.55957 3.5 9.75 4.67523 9.75 6.125Z" fill="#FF3D00" fill-opacity="1.000000" fill-rule="evenodd"/>
		<path id="Vector" d="M26.824 11.8781C26.7598 11.839 26.6865 11.8167 26.6111 11.8134C26.5356 11.81 26.4604 11.8257 26.3928 11.8589L21.7161 14.1671L21.7161 13.125C21.7151 12.313 21.3879 11.5347 20.8064 10.9605C20.2246 10.3864 19.4363 10.0634 18.6138 10.0625L4.43188 10.0625C3.60938 10.0634 2.8208 10.3864 2.23926 10.9605C1.65771 11.5347 1.33057 12.313 1.32959 13.125L1.32959 19.25C1.33057 20.062 1.65771 20.8404 2.23926 21.4145C2.8208 21.9886 3.60938 22.3116 4.43188 22.3125L10.4529 22.3125L6.77759 25.9407C6.69678 26.0232 6.65234 26.1337 6.65332 26.2484C6.6543 26.3632 6.70093 26.4728 6.78296 26.554C6.86523 26.6351 6.97632 26.6811 7.09253 26.6821C7.20874 26.6831 7.3208 26.639 7.4043 26.5593L11.5227 22.4937L15.6414 26.5593C15.7249 26.639 15.8369 26.6831 15.9529 26.6821C16.0691 26.6811 16.1804 26.6351 16.2625 26.554C16.3447 26.4728 16.3914 26.3632 16.3923 26.2484C16.3933 26.1337 16.3486 26.0232 16.2678 25.9407L12.5925 22.3125L18.6138 22.3125C19.4363 22.3116 20.2246 21.9886 20.8064 21.4145C21.3879 20.8404 21.7151 20.062 21.7161 19.25L21.7161 18.2079L26.3928 20.5165C26.4604 20.5499 26.5356 20.5656 26.6111 20.5623C26.6865 20.5589 26.7598 20.5365 26.824 20.4973C26.8884 20.4581 26.9414 20.4033 26.978 20.3381C27.0149 20.2729 27.0342 20.1996 27.0342 20.125L27.0342 12.25C27.0342 12.1755 27.0149 12.1022 26.978 12.0371C26.9412 11.972 26.8882 11.9173 26.824 11.8781ZM20.8296 19.25C20.8289 19.83 20.5952 20.3859 20.1797 20.796C19.7644 21.2061 19.2012 21.4368 18.6138 21.4375L4.43188 21.4375C3.84448 21.4368 3.28125 21.2061 2.86572 20.796C2.45044 20.3859 2.21655 19.83 2.21606 19.25L2.21606 13.125C2.21655 12.545 2.45044 11.9891 2.86572 11.579C3.28125 11.1689 3.84448 10.9382 4.43188 10.9375L18.6138 10.9375C19.2012 10.9382 19.7644 11.1689 20.1797 11.579C20.5952 11.9891 20.8289 12.545 20.8296 13.125L20.8296 19.25ZM26.1477 19.4171L21.7161 17.2296L21.7161 15.1454L26.1477 12.9579L26.1477 19.4171ZM15.9546 9.1875C16.7434 9.1875 17.5146 8.95654 18.1707 8.52393C18.8264 8.09125 19.3376 7.47632 19.6396 6.75684C19.9414 6.03735 20.0205 5.24561 19.8667 4.48181C19.7126 3.71802 19.3328 3.01642 18.7749 2.46576C18.217 1.9151 17.5063 1.5401 16.7327 1.38818C15.959 1.23621 15.157 1.31421 14.4282 1.61224C13.6995 1.91022 13.0764 2.41492 12.6382 3.06244C12.2 3.70996 11.9661 4.47125 11.9661 5.25C11.967 6.29395 12.3877 7.2948 13.1355 8.03296C13.8833 8.77112 14.8972 9.18634 15.9546 9.1875ZM15.9546 2.1875C16.5681 2.1875 17.168 2.36713 17.6782 2.70361C18.1882 3.04016 18.5859 3.51843 18.8208 4.07806C19.0554 4.63763 19.1169 5.25342 18.9973 5.84747C18.8774 6.44153 18.582 6.98724 18.1482 7.41553C17.7144 7.84381 17.1616 8.1355 16.5598 8.25366C15.958 8.37183 15.3342 8.31116 14.7673 8.07941C14.2004 7.8476 13.7161 7.45508 13.3752 6.95142C13.0342 6.44781 12.8523 5.85571 12.8523 5.25C12.8533 4.43805 13.1804 3.65967 13.762 3.08551C14.3435 2.51135 15.1321 2.18842 15.9546 2.1875ZM7.09106 9.1875C7.70459 9.1875 8.3042 9.00787 8.81445 8.67139C9.32471 8.33484 9.72217 7.85657 9.95703 7.297C10.1919 6.73737 10.2534 6.12158 10.1335 5.52753C10.0139 4.93347 9.71851 4.38776 9.28467 3.95947C8.85083 3.53119 8.29785 3.2395 7.69629 3.12134C7.09448 3.00317 6.4707 3.06384 5.90381 3.29559C5.33691 3.5274 4.85229 3.91992 4.51147 4.42358C4.17065 4.92719 3.98877 5.51929 3.98877 6.125C3.9895 6.93695 4.31665 7.71539 4.89844 8.28949C5.47998 8.86365 6.26855 9.18658 7.09106 9.1875ZM7.09106 3.9375C7.5293 3.9375 7.95776 4.0658 8.32202 4.30615C8.68652 4.54651 8.97046 4.88818 9.13818 5.2879C9.30591 5.68762 9.34985 6.12744 9.2644 6.55176C9.17871 6.97607 8.96777 7.36584 8.65796 7.67181C8.3479 7.97772 7.95312 8.18604 7.52319 8.27045C7.09351 8.35486 6.64795 8.31158 6.24292 8.146C5.83813 7.98041 5.49194 7.70007 5.24854 7.34033C5.00513 6.98059 4.875 6.55768 4.875 6.125C4.87573 5.54504 5.10938 4.98907 5.5249 4.57898C5.94019 4.16888 6.50342 3.93817 7.09106 3.9375Z" fill="#FFFFFF" fill-opacity="1.000000" fill-rule="nonzero"/>
	</g>
</svg>
