<svg width="80.000000" height="18.000000" viewBox="0 0 80 18" fill="none" xmlns="http://www.w3.org/2000/svg" xmlns:xlink="http://www.w3.org/1999/xlink">
	<desc>
			Created with Pixso.
	</desc>
	<defs>
		<clipPath id="clip26_264">
			<rect id="Frame" width="17.454546" height="18.000000" fill="white" fill-opacity="0"/>
		</clipPath>
	</defs>
	<path id="Vector" d="M79.8047 10.1364C79.8047 11.1079 79.6216 11.9276 79.2549 12.5952C78.8887 13.2599 78.394 13.7642 77.7715 14.1079C77.1489 14.4489 76.4546 14.6193 75.689 14.6193C74.9175 14.6193 74.2207 14.4474 73.5981 14.1036C72.978 13.7571 72.4849 13.2514 72.1187 12.5866C71.7549 11.919 71.5732 11.1022 71.5732 10.1364C71.5732 9.16473 71.7549 8.34656 72.1187 7.68176C72.4849 7.01416 72.978 6.50989 73.5981 6.16901C74.2207 5.82526 74.9175 5.65338 75.689 5.65338C76.4546 5.65338 77.1489 5.82526 77.7715 6.16901C78.394 6.50989 78.8887 7.01416 79.2549 7.68176C79.6216 8.34656 79.8047 9.16473 79.8047 10.1364ZM77.4409 10.1364C77.4409 9.61359 77.3735 9.17328 77.2388 8.81531C77.1064 8.45453 76.9092 8.18176 76.6475 7.99713C76.3887 7.80963 76.0693 7.71588 75.689 7.71588C75.3086 7.71588 74.9878 7.80963 74.7261 7.99713C74.4673 8.18176 74.27 8.45453 74.1353 8.81531C74.0029 9.17328 73.937 9.61359 73.937 10.1364C73.937 10.6591 74.0029 11.1008 74.1353 11.4616C74.27 11.8196 74.4673 12.0923 74.7261 12.2798C74.9878 12.4645 75.3086 12.5568 75.689 12.5568C76.0693 12.5568 76.3887 12.4645 76.6475 12.2798C76.9092 12.0923 77.1064 11.8196 77.2388 11.4616C77.3735 11.1008 77.4409 10.6591 77.4409 10.1364Z" fill="#FF3D00" fill-opacity="1.000000" fill-rule="nonzero"/>
	<path id="Vector" d="M62.8789 14.5L62.8789 5.77271L65.1763 5.77271L65.1763 9.18182L68.2178 9.18182L68.2178 5.77271L70.5151 5.77271L70.5151 14.5L68.2178 14.5L68.2178 11.0909L65.1763 11.0909L65.1763 14.5L62.8789 14.5Z" fill="#FF3D00" fill-opacity="1.000000" fill-rule="nonzero"/>
	<path id="Vector" d="M54.4697 5.77271L56.7671 5.77271L56.7671 10.3409L56.8335 10.3409L59.8418 5.77271L61.792 5.77271L61.792 14.5L59.4946 14.5L59.4946 9.91473L59.4448 9.91473L56.3872 14.5L54.4697 14.5L54.4697 5.77271Z" fill="#FF3D00" fill-opacity="1.000000" fill-rule="nonzero"/>
	<path id="Vector" d="M50.9688 14.5L48.3735 10.9716L48.0513 10.9716L48.0513 14.5L45.7539 14.5L45.7539 5.77271L48.0513 5.77271L48.0513 9.0625L48.3491 9.0625L50.7788 5.77271L53.6714 5.77271L50.4482 9.96588L53.853 14.5L50.9688 14.5Z" fill="#FF3D00" fill-opacity="1.000000" fill-rule="nonzero"/>
	<path id="Vector" d="M44.6909 10.1364C44.6909 11.1079 44.5078 11.9276 44.1411 12.5952C43.7749 13.2599 43.2803 13.7642 42.6577 14.1079C42.0352 14.4489 41.3408 14.6193 40.5752 14.6193C39.8037 14.6193 39.1069 14.4474 38.4844 14.1036C37.8643 13.7571 37.3711 13.2514 37.0049 12.5866C36.6411 11.919 36.4595 11.1022 36.4595 10.1364C36.4595 9.16473 36.6411 8.34656 37.0049 7.68176C37.3711 7.01416 37.8643 6.50989 38.4844 6.16901C39.1069 5.82526 39.8037 5.65338 40.5752 5.65338C41.3408 5.65338 42.0352 5.82526 42.6577 6.16901C43.2803 6.50989 43.7749 7.01416 44.1411 7.68176C44.5078 8.34656 44.6909 9.16473 44.6909 10.1364ZM42.3271 10.1364C42.3271 9.61359 42.2598 9.17328 42.125 8.81531C41.9927 8.45453 41.7954 8.18176 41.5337 7.99713C41.2749 7.80963 40.9556 7.71588 40.5752 7.71588C40.1948 7.71588 39.874 7.80963 39.6123 7.99713C39.3535 8.18176 39.1562 8.45453 39.0215 8.81531C38.8892 9.17328 38.8232 9.61359 38.8232 10.1364C38.8232 10.6591 38.8892 11.1008 39.0215 11.4616C39.1562 11.8196 39.3535 12.0923 39.6123 12.2798C39.874 12.4645 40.1948 12.5568 40.5752 12.5568C40.9556 12.5568 41.2749 12.4645 41.5337 12.2798C41.7954 12.0923 41.9927 11.8196 42.125 11.4616C42.2598 11.1008 42.3271 10.6591 42.3271 10.1364Z" fill="#FFFFFF" fill-opacity="1.000000" fill-rule="nonzero"/>
	<path id="Vector" d="M28.856 14.5L28.856 5.77271L32.5088 5.77271C33.1367 5.77271 33.6865 5.90057 34.1577 6.15625C34.6289 6.41193 34.9951 6.7713 35.2568 7.23438C35.5186 7.69745 35.6494 8.23859 35.6494 8.85791C35.6494 9.48291 35.5142 10.0241 35.2446 10.4815C34.9771 10.9389 34.6011 11.2912 34.1162 11.5383C33.6343 11.7855 33.0708 11.9091 32.4263 11.9091L30.2446 11.9091L30.2446 10.0682L31.9634 10.0682C32.2334 10.0682 32.4634 10.0198 32.6533 9.92328C32.8462 9.82385 32.9937 9.68323 33.0957 9.5014C33.2002 9.31958 33.2524 9.1051 33.2524 8.85791C33.2524 8.60791 33.2002 8.39484 33.0957 8.21875C32.9937 8.03973 32.8462 7.90338 32.6533 7.80963C32.4634 7.71307 32.2334 7.66473 31.9634 7.66473L31.1533 7.66473L31.1533 14.5L28.856 14.5Z" fill="#FFFFFF" fill-opacity="1.000000" fill-rule="nonzero"/>
	<path id="Vector" d="M27.3862 5.77271L27.3862 14.5L25.1216 14.5L25.1216 7.64771L22.2622 7.64771L22.2622 14.5L19.9976 14.5L19.9976 5.77271L27.3862 5.77271Z" fill="#FFFFFF" fill-opacity="1.000000" fill-rule="nonzero"/>
	<rect id="Frame" width="17.454546" height="18.000000" fill="#FFFFFF" fill-opacity="0"/>
	<g clip-path="url(#clip26_264)">
		<path id="Vector" d="M2.72705 6.75L11.4546 6.75C12.3584 6.75 13.0908 7.50549 13.0908 8.4375L13.0908 12.375C13.0908 13.307 12.3584 14.0625 11.4546 14.0625L2.72705 14.0625C1.82324 14.0625 1.09082 13.307 1.09082 12.375L1.09082 8.4375C1.09082 7.50549 1.82324 6.75 2.72705 6.75Z" fill="#FF3D00" fill-opacity="1.000000" fill-rule="evenodd"/>
		<path id="Vector" d="M16.3638 12.9375L13.0908 11.25L13.0908 9.5625L16.3638 7.875L16.3638 12.9375Z" fill="#FF3D00" fill-opacity="1.000000" fill-rule="nonzero"/>
		<path id="Vector" d="M12 3.375C12 4.61761 11.0229 5.625 9.81787 5.625C8.61328 5.625 7.63623 4.61761 7.63623 3.375C7.63623 2.13239 8.61328 1.125 9.81787 1.125C11.0229 1.125 12 2.13239 12 3.375Z" fill="#FF3D00" fill-opacity="1.000000" fill-rule="evenodd"/>
		<path id="Vector" d="M6 3.9375C6 4.86951 5.26709 5.625 4.36328 5.625C3.45947 5.625 2.72705 4.86951 2.72705 3.9375C2.72705 3.00549 3.45947 2.25 4.36328 2.25C5.26709 2.25 6 3.00549 6 3.9375Z" fill="#FF3D00" fill-opacity="1.000000" fill-rule="evenodd"/>
		<path id="Vector" d="M16.5073 7.63593C16.4678 7.61078 16.4224 7.5965 16.376 7.5943C16.3296 7.59216 16.2837 7.60223 16.2417 7.62354L13.3638 9.10742L13.3638 8.4375C13.3633 7.91553 13.1621 7.4151 12.8042 7.04602C12.4463 6.67694 11.9609 6.46936 11.4546 6.46875L2.72754 6.46875C2.22119 6.46936 1.73584 6.67694 1.37793 7.04602C1.02002 7.4151 0.818848 7.91553 0.818359 8.4375L0.818359 12.375C0.818848 12.897 1.02002 13.3974 1.37793 13.7665C1.73584 14.1356 2.22119 14.3431 2.72754 14.3438L6.43262 14.3438L4.1709 16.6761C4.12109 16.7292 4.09375 16.8002 4.09424 16.874C4.09521 16.9478 4.12354 17.0182 4.17432 17.0704C4.2251 17.1226 4.29346 17.1522 4.36475 17.1528C4.43652 17.1534 4.50537 17.1251 4.55664 17.0739L7.09131 14.4602L9.62549 17.0739C9.67676 17.1251 9.74609 17.1534 9.81738 17.1528C9.88867 17.1522 9.95752 17.1226 10.0078 17.0704C10.0586 17.0182 10.0869 16.9478 10.0879 16.874C10.0884 16.8002 10.061 16.7292 10.0112 16.6761L7.74951 14.3438L11.4546 14.3438C11.9609 14.3431 12.4463 14.1356 12.8042 13.7665C13.1621 13.3974 13.3633 12.897 13.3638 12.375L13.3638 11.7051L16.2417 13.1892C16.2837 13.2106 16.3296 13.2208 16.376 13.2186C16.4224 13.2164 16.4678 13.202 16.5073 13.1768C16.5469 13.1516 16.5796 13.1164 16.6021 13.0745C16.6245 13.0326 16.6367 12.9855 16.6367 12.9375L16.6367 7.875C16.6367 7.82709 16.6245 7.77997 16.6021 7.73816C16.5796 7.69635 16.5469 7.66113 16.5073 7.63593ZM12.8184 12.375C12.8179 12.7478 12.6743 13.1052 12.4185 13.3689C12.1631 13.6325 11.8164 13.7808 11.4546 13.7812L2.72754 13.7812C2.36572 13.7808 2.01953 13.6325 1.76367 13.3689C1.50781 13.1052 1.36426 12.7478 1.36377 12.375L1.36377 8.4375C1.36426 8.0647 1.50781 7.70728 1.76367 7.4436C2.01953 7.17999 2.36572 7.03168 2.72754 7.03125L11.4546 7.03125C11.8164 7.03168 12.1631 7.17999 12.4185 7.4436C12.6743 7.70728 12.8179 8.0647 12.8184 8.4375L12.8184 12.375ZM16.0913 12.4824L13.3638 11.0762L13.3638 9.73633L16.0913 8.33008L16.0913 12.4824ZM9.81836 5.90625C10.3037 5.90625 10.7783 5.75781 11.1821 5.47968C11.5854 5.20154 11.9004 4.80621 12.0859 4.34369C12.272 3.88116 12.3203 3.37219 12.2256 2.88116C12.1309 2.39014 11.8975 1.93915 11.5542 1.58514C11.2109 1.23114 10.7734 0.990051 10.2974 0.892395C9.82129 0.794739 9.32764 0.844849 8.87891 1.03644C8.43066 1.22803 8.04736 1.55243 7.77734 1.96869C7.50781 2.38495 7.36377 2.87439 7.36377 3.375C7.36475 4.04608 7.62354 4.68951 8.0835 5.16406C8.54346 5.63861 9.16748 5.90552 9.81836 5.90625ZM9.81836 1.40625C10.1958 1.40625 10.5649 1.52173 10.8789 1.73804C11.1929 1.95435 11.4375 2.26184 11.582 2.62158C11.7266 2.98132 11.7646 3.3772 11.6909 3.75909C11.6172 4.14099 11.4351 4.49176 11.1685 4.76709C10.9014 5.04248 10.561 5.22998 10.1909 5.30591C9.82031 5.3819 9.43652 5.3429 9.08789 5.19391C8.73877 5.04486 8.44092 4.79254 8.23096 4.46875C8.021 4.14502 7.90918 3.7644 7.90918 3.375C7.90967 2.85303 8.11133 2.3526 8.46924 1.98352C8.82715 1.61444 9.31201 1.40686 9.81836 1.40625ZM4.36377 5.90625C4.74121 5.90625 5.11035 5.79077 5.42432 5.57446C5.73828 5.35815 5.98291 5.05066 6.12744 4.69092C6.27197 4.33118 6.31006 3.9353 6.23633 3.55341C6.1626 3.17151 5.98096 2.82074 5.71387 2.54541C5.44678 2.27008 5.10645 2.08252 4.73633 2.00659C4.36572 1.9306 3.98193 1.9696 3.6333 2.11859C3.28418 2.26764 2.98633 2.51996 2.77637 2.84375C2.56689 3.16748 2.45459 3.5481 2.45459 3.9375C2.45508 4.45947 2.65674 4.9599 3.01465 5.32898C3.37256 5.69806 3.85791 5.90564 4.36377 5.90625ZM4.36377 2.53125C4.6333 2.53125 4.89697 2.61371 5.12158 2.76825C5.3457 2.92279 5.52051 3.1424 5.62354 3.39935C5.72705 3.65631 5.75391 3.93909 5.70117 4.21185C5.64844 4.48462 5.51855 4.73523 5.32812 4.93188C5.13721 5.12854 4.89453 5.26245 4.62988 5.31671C4.36523 5.37097 4.09131 5.34314 3.8418 5.23669C3.59277 5.13025 3.37988 4.95001 3.22998 4.71875C3.08008 4.48749 3 4.21564 3 3.9375C3.00049 3.5647 3.14453 3.20728 3.3999 2.9436C3.65576 2.67999 4.00244 2.53168 4.36377 2.53125Z" fill="#FFFFFF" fill-opacity="1.000000" fill-rule="nonzero"/>
	</g>
</svg>
